<svg width="1664" height="936" xmlns="http://www.w3.org/2000/svg" xmlns:xlink="http://www.w3.org/1999/xlink" overflow="hidden"><g><rect x="0" y="0" width="1664" height="935.812" fill="#D2D2D2"/><path d="M0 68.1539C0 36.5875 25.5948 10.9978 57.1677 10.9978L285.832 10.9978C317.405 10.9978 343 36.5875 343 68.1539L343 863.659C343 895.226 317.405 920.815 285.832 920.815L57.1677 920.815C25.5948 920.815 0 895.226 0 863.659Z" fill="#A6A6A6" fill-rule="evenodd"/><path d="M219 164.637C219 80.8888 286.905 12.9974 370.67 12.9974L1502.33 12.9974C1586.1 12.9974 1654 80.8888 1654 164.637L1654 771.175C1654 854.924 1586.1 922.815 1502.33 922.815L370.67 922.815C286.905 922.815 219 854.924 219 771.175Z" fill="#E7E6E6" fill-rule="evenodd"/><path d="M247 119.977C247 102.307 261.327 87.9824 279.001 87.9824L406.999 87.9824C424.673 87.9824 439 102.307 439 119.977L439 247.95C439 265.62 424.673 279.944 406.999 279.944L279.001 279.944C261.327 279.944 247 265.62 247 247.95Z" fill="#FFFFFF" fill-rule="evenodd"/><text fill="#FFFFFF" font-family="Calibri,Calibri_MSFontService,sans-serif" font-weight="400" font-size="24" transform="matrix(1 0 0 0.9998 339.288 192)">`</text><path d="M483 118.977C483 101.307 497.327 86.9826 515.001 86.9826L642.999 86.9826C660.673 86.9826 675 101.307 675 118.977L675 246.95C675 264.62 660.673 278.944 642.999 278.944L515.001 278.944C497.327 278.944 483 264.62 483 246.95Z" fill="#FFFFFF" fill-rule="evenodd"/><path d="M720 123.976C720 106.306 734.327 91.9815 752.001 91.9815L879.999 91.9815C897.673 91.9815 912 106.306 912 123.976L912 251.949C912 269.619 897.673 283.943 879.999 283.943L752.001 283.943C734.327 283.943 720 269.619 720 251.949Z" fill="#FFFFFF" fill-rule="evenodd"/><path d="M957 128.975C957 111.305 971.327 96.9806 989.001 96.9806L1117 96.9806C1134.67 96.9806 1149 111.305 1149 128.975L1149 256.948C1149 274.618 1134.67 288.942 1117 288.942L989.001 288.942C971.327 288.942 957 274.618 957 256.948Z" fill="#FFFFFF" fill-rule="evenodd"/><path d="M1193 130.974C1193 113.304 1207.33 98.9802 1225 98.9802L1353 98.9802C1370.67 98.9802 1385 113.304 1385 130.974L1385 258.948C1385 276.617 1370.67 290.942 1353 290.942L1225 290.942C1207.33 290.942 1193 276.617 1193 258.948Z" fill="#FFFFFF" fill-rule="evenodd"/><path d="M1429 132.974C1429 115.304 1443.33 100.98 1461 100.98L1589 100.98C1606.67 100.98 1621 115.304 1621 132.974L1621 260.947C1621 278.617 1606.67 292.941 1589 292.941L1461 292.941C1443.33 292.941 1429 278.617 1429 260.947Z" fill="#FFFFFF" fill-rule="evenodd"/><path d="M244 360.263C244 320.874 275.938 288.942 315.335 288.942L600.665 288.942C640.062 288.942 672 320.874 672 360.263L672 814.502C672 853.891 640.062 885.822 600.665 885.822L315.335 885.822C275.938 885.822 244 853.891 244 814.502Z" fill="#FFFFFF" fill-rule="evenodd"/><path d="M717 367.261C717 327.872 748.938 295.941 788.335 295.941L1073.67 295.941C1113.06 295.941 1145 327.872 1145 367.261L1145 821.5C1145 860.89 1113.06 892.821 1073.67 892.821L788.335 892.821C748.938 892.821 717 860.89 717 821.5Z" fill="#FFFFFF" fill-rule="evenodd"/><path d="M1193 345.932C1193 319.427 1214.49 297.94 1241 297.94L1574 297.94C1600.51 297.94 1622 319.427 1622 345.932L1622 537.891C1622 564.396 1600.51 585.883 1574 585.883L1241 585.883C1214.49 585.883 1193 564.396 1193 537.891Z" fill="#FFFFFF" fill-rule="evenodd"/><path d="M1192 652.87C1192 626.365 1213.49 604.879 1240 604.879L1572 604.879C1598.51 604.879 1620 626.365 1620 652.87L1620 844.83C1620 871.335 1598.51 892.821 1572 892.821L1240 892.821C1213.49 892.821 1192 871.335 1192 844.83Z" fill="#FFFFFF" fill-rule="evenodd"/><g><g><g><path d="M13.3333 9.33333 9.33333 9.33333 9.33333 54.6667 54.6667 54.6667 54.6667 50.6667 13.3333 50.6667Z" transform="matrix(1 0 0 1.20289 312 91.9815)"/><path d="M44 20.6667 47.9333 24.6 42.6667 29.8667 38.6667 25.8667 32 32.5333 28 28.5333 15.9333 40.6 18.7333 43.4 28 34.1333 32 38.1333 38.6667 31.4667 42.6667 35.4667 50.7333 27.4 54.6667 31.3333 54.6667 20.6667Z" transform="matrix(1 0 0 1.20289 312 91.9815)"/></g></g></g><g><g><g><path d="M52.8436 43.6267 51.0002 45.4701 8.60245 45.4701 6.14461 43.0123 6.14461 30.723 8.60245 28.2652 51.0002 28.2652 52.8436 30.1086 52.8436 43.6267ZM2.45784 24.5784 2.45784 49.1569 56.5304 49.1569 56.5304 24.5784 2.45784 24.5784Z" transform="matrix(1.0002 0 0 1 549 98.9802)"/><path d="M34.4098 36.8676C34.4098 40.2612 32.209 43.0123 29.4941 43.0123 26.7793 43.0123 24.5784 40.2612 24.5784 36.8676 24.5784 33.4741 26.7793 30.723 29.4941 30.723 32.209 30.723 34.4098 33.4741 34.4098 36.8676Z" transform="matrix(1.0002 0 0 1 549 98.9802)"/><path d="M15.976 36.8676C15.976 37.8857 15.1507 38.711 14.1326 38.711 13.1145 38.711 12.2892 37.8857 12.2892 36.8676 12.2892 35.8496 13.1145 35.0243 14.1326 35.0243 15.1507 35.0243 15.976 35.8496 15.976 36.8676Z" transform="matrix(1.0002 0 0 1 549 98.9802)"/><path d="M46.699 36.8676C46.699 37.8857 45.8737 38.711 44.8556 38.711 43.8376 38.711 43.0123 37.8857 43.0123 36.8676 43.0123 35.8496 43.8376 35.0243 44.8556 35.0243 45.8737 35.0243 46.699 35.8496 46.699 36.8676Z" transform="matrix(1.0002 0 0 1 549 98.9802)"/><path d="M40.493 12.7193 41.4147 15.0543 45.1014 14.3169 42.5207 7.8651 9.4627 21.3832 28.3881 17.635Z" transform="matrix(1.0002 0 0 1 549 98.9802)"/><path d="M37.2978 22.1206 47.0063 20.2158 47.4364 22.1206 51.1846 22.1206 49.9557 15.8531 18.4338 22.1206Z" transform="matrix(1.0002 0 0 1 549 98.9802)"/></g></g></g><g><g><g><path d="M25.5602 20.3085C24.1874 19.1387 22.4043 18.5904 20.7146 18.0623L20.7146 8.24117C22.3551 8.39706 23.8882 9.12621 25.0444 10.3004L26.994 8.43207C25.3255 6.73481 23.0898 5.71236 20.7146 5.56045L20.7146 2.03085 18.2776 2.03085 18.2776 5.7148C17.4431 5.87723 16.6379 6.16479 15.8893 6.56775 12.8106 8.24523 11.2387 12.1851 12.5019 15.5035 13.4808 18.0623 15.8406 19.2037 18.2776 20.0607L18.2776 30.6942C16.3889 30.4627 14.8211 29.3782 13.5214 28.0257L11.5718 29.89C12.5001 30.9433 13.6069 31.8247 14.8414 32.4935 15.9204 33.0068 17.0858 33.314 18.2776 33.3993L18.2776 36.9614 20.7146 36.9614 20.7146 33.3059C23.5091 32.8388 26.0761 31.1207 27.1808 28.4318 28.2856 25.743 27.8835 22.2946 25.5602 20.3085ZM16.2468 16.1371C14.0128 14.2525 14.5571 10.6051 16.9251 9.09413 17.3448 8.82496 17.8 8.61578 18.2776 8.47269L18.2776 17.2825C17.5422 17.015 16.8561 16.628 16.2468 16.1371ZM23.5944 29.0614C22.8016 29.8364 21.8014 30.3654 20.7146 30.5845L20.7146 20.8812C22.3393 21.4376 24.2036 22.1443 24.8657 23.8746 25.5277 25.6049 24.8616 27.7698 23.5944 29.0614Z" transform="matrix(2.02604 0 0 1 771 108.978)"/></g></g></g><g><g><g><path d="M4.08333 15.3125C4.08333 14.751 4.5427 14.2917 5.10416 14.2917L12.25 14.2917 12.25 22.4583 4.08333 22.4583 4.08333 15.3125ZM14.2917 14.2917 22.4583 14.2917 22.4583 22.4583 14.2917 22.4583 14.2917 14.2917ZM24.5 14.2917 32.6666 14.2917 32.6666 22.4583 24.5 22.4583 24.5 14.2917ZM34.7083 14.2917 41.4968 14.2917C42.4666 14.2917 43.3343 15.0062 43.4874 15.976L44.6614 23.2239C44.7635 23.9896 44.8656 24.7552 44.8656 25.5208L37.7708 25.5208 34.7083 22.4583 34.7083 14.2917ZM2.04166 14.2917 2.04166 32.6666C2.04166 33.7895 2.96041 34.7083 4.08333 34.7083L4.18541 34.7083C4.13437 34.402 4.08333 34.0448 4.08333 33.6875 4.08333 30.8802 6.3802 28.5833 9.18749 28.5833 11.9948 28.5833 14.2917 30.8802 14.2917 33.6875 14.2917 34.0448 14.2406 34.402 14.1896 34.7083L32.7687 34.7083C32.7177 34.402 32.6666 34.0448 32.6666 33.6875 32.6666 30.8802 34.9635 28.5833 37.7708 28.5833 40.5781 28.5833 42.875 30.8802 42.875 33.6875 42.875 34.0448 42.8239 34.402 42.7729 34.7083L44.9166 34.7083C46.0395 34.7083 46.9583 33.7895 46.9583 32.6666L46.9583 26.1333C46.9583 25.0614 46.8562 23.9385 46.7031 22.8666L45.5291 15.5677C45.1718 13.6281 43.4874 12.1989 41.4968 12.1989L4.08333 12.1989C2.96041 12.25 2.04166 13.1687 2.04166 14.2917Z" transform="matrix(1 0 0 1.02021 1019 96.9806)"/><path d="M41.3437 33.6875C41.3437 35.6607 39.7441 37.2604 37.7708 37.2604 35.7975 37.2604 34.1979 35.6607 34.1979 33.6875 34.1979 31.7142 35.7975 30.1145 37.7708 30.1145 39.7441 30.1145 41.3437 31.7142 41.3437 33.6875Z" transform="matrix(1 0 0 1.02021 1019 96.9806)"/><path d="M12.7604 33.6875C12.7604 35.6607 11.1608 37.2604 9.18749 37.2604 7.21422 37.2604 5.61458 35.6607 5.61458 33.6875 5.61458 31.7142 7.21422 30.1145 9.18749 30.1145 11.1608 30.1145 12.7604 31.7142 12.7604 33.6875Z" transform="matrix(1 0 0 1.02021 1019 96.9806)"/></g></g></g><g><g><g><path d="M31.0826 50.0469C22.4603 48.6271 16.1417 41.1613 16.1668 32.4229 16.1798 31.3406 16.2902 30.2617 16.4967 29.1992L16.5517 29.1992 17.8096 31.3781C18.1892 32.0368 19.0309 32.263 19.6895 31.8833 20.3482 31.5037 20.5744 30.662 20.1947 30.0034L17.2734 24.9513C17.0916 24.6367 16.7926 24.4068 16.4417 24.312 16.089 24.2173 15.7131 24.2667 15.3969 24.4495L10.3104 27.3846C9.63773 27.7365 9.37763 28.5672 9.72956 29.2399 10.0815 29.9127 10.9122 30.1727 11.5849 29.8208 11.6191 29.8029 11.6526 29.7836 11.6852 29.7628L13.7885 28.5462C13.5439 29.824 13.4196 31.122 13.4173 32.4229 13.3861 42.4967 20.6634 51.1071 30.6014 52.7551L30.8351 52.7551C31.5944 52.8159 32.2591 52.2496 32.3198 51.4904 32.3806 50.7311 31.8143 50.0664 31.0551 50.0057Z" transform="matrix(1.0002 0 0 1 1262 102.979)"/><path d="M54.6591 32.4229C54.6619 29.9667 54.2267 27.5297 53.3738 25.2262 53.108 24.5145 52.3156 24.1528 51.6038 24.4186 50.892 24.6843 50.5304 25.4768 50.7962 26.1885 54.238 35.4391 49.5291 45.7284 40.2785 49.1702 40.2125 49.1948 40.1464 49.2189 40.0802 49.2427L40.0802 49.2427 41.3312 47.0569C41.7108 46.3963 41.4831 45.5532 40.8225 45.1735 40.162 44.7939 39.3188 45.0216 38.9391 45.6822L36.0522 50.748C35.6745 51.4067 35.9022 52.2468 36.5608 52.6245 36.5608 52.6245 36.5609 52.6245 36.5609 52.6245L41.6267 55.5183C42.2873 55.898 43.1305 55.6702 43.5101 55.0097 43.8897 54.3491 43.662 53.5059 43.0014 53.1263L40.8569 51.9097C49.1504 49.0326 54.6973 41.2012 54.6591 32.4229Z" transform="matrix(1.0002 0 0 1 1262 102.979)"/><path d="M42.974 18.655C42.2147 18.655 41.5992 19.2705 41.5992 20.0298 41.5992 20.789 42.2147 21.4045 42.974 21.4045L48.6241 21.4045C48.6767 21.4079 48.7295 21.4079 48.7822 21.4045 49.0467 21.4046 49.3053 21.3256 49.5245 21.1777L49.6208 21.1158 49.662 21.0814 49.662 21.0814 49.7514 21.0127C50.0205 20.7562 50.1742 20.4016 50.1775 20.0298L50.1775 14.2009C50.1775 13.4417 49.5621 12.8262 48.8028 12.8262 48.0435 12.8262 47.4281 13.4417 47.4281 14.2009L47.4281 16.7098 47.4281 16.7098C38.7597 9.32333 25.7447 10.3625 18.3582 19.0308 18.3264 19.0681 18.2948 19.1055 18.2632 19.1431 17.7736 19.7239 17.8474 20.5918 18.4282 21.0814 19.009 21.5711 19.8769 21.4973 20.3666 20.9165 26.6793 13.3975 37.8753 12.3786 45.4416 18.6344Z" transform="matrix(1.0002 0 0 1 1262 102.979)"/></g></g></g><g><g><g><path d="M55.9166 27.3229 37.7437 12.0729 37.7437 20.9687C9.84895 21.2229 5.08333 49.5624 5.08333 49.5624 5.08333 49.5624 15.4406 34.5031 37.7437 34.3125L37.7437 42.5729 55.9166 27.3229Z" fill="#00B050" transform="matrix(1 0 0 1.01619 1486 99.9799)"/></g></g></g></g></svg>